<?xml version="1.0" standalone="no"?>
<!DOCTYPE svg PUBLIC "-//W3C//DTD SVG 20010904//EN"
 "http://www.w3.org/TR/2001/REC-SVG-20010904/DTD/svg10.dtd">
<svg version="1.0" xmlns="http://www.w3.org/2000/svg"
 width="31.000000pt" height="31.000000pt" viewBox="0 0 31.000000 31.000000"
 preserveAspectRatio="xMidYMid meet">

<g transform="translate(0.000000,31.000000) scale(0.100000,-0.100000)"
fill="#000000" stroke="none">
<path d="M54 301 c-54 -14 -54 -14 -54 -151 0 -112 2 -129 17 -135 36 -14 190
-18 242 -5 l51 12 0 129 c0 122 -1 129 -22 140 -27 14 -191 21 -234 10z m229
-16 c26 -11 21 -34 -10 -42 -16 -5 -68 -8 -118 -8 -102 0 -145 9 -145 30 0 8
12 17 28 21 15 3 32 8 37 10 16 6 188 -3 208 -11z m-128 -60 c44 0 95 3 112 7
l33 8 0 -105 0 -104 -42 -12 c-44 -12 -215 -8 -237 5 -7 5 -11 44 -11 111 l0
105 33 -8 c17 -4 68 -7 112 -7z"/>
<path d="M110 120 c0 -47 3 -60 15 -60 10 0 15 10 15 28 l1 27 15 -27 c8 -16
22 -28 30 -28 14 0 13 5 -4 32 -21 32 -21 32 -1 60 17 23 18 28 5 28 -8 0 -22
-10 -30 -22 l-16 -22 0 22 c0 13 -6 22 -15 22 -12 0 -15 -13 -15 -60z"/>
</g>
</svg>
